<svg width="200" height="200" viewBox="0 0 200 200" fill="none" xmlns="http://www.w3.org/2000/svg">
<rect width="200" height="200" rx="25" fill="#6366F1"/>
<path d="M52.8574 113C44.6519 113 37.8238 119.745 39.7716 127.716C42.4437 138.651 48.0678 148.749 56.1594 156.841C67.7866 168.468 83.5566 175 100 175C116.443 175 132.213 168.468 143.841 156.841C151.932 148.749 157.556 138.651 160.228 127.716C162.176 119.745 155.348 113 147.143 113C138.937 113 132.571 119.987 128.926 127.339C127.383 130.453 125.333 133.325 122.829 135.829C116.774 141.884 108.563 145.285 100 145.285C91.4374 145.285 83.2255 141.884 77.1709 135.829C74.6671 133.325 72.617 130.453 71.0736 127.339C67.4295 119.987 61.0629 113 52.8574 113Z" fill="#FAFAFA"/>
<path d="M147.143 87C155.348 87 162.176 80.2549 160.228 72.2839C157.556 61.3489 151.932 51.251 143.841 43.1594C132.213 31.5321 116.443 25 100 25C83.5566 25 67.7866 31.5321 56.1594 43.1594C48.0678 51.251 42.4437 61.3489 39.7716 72.2839C37.8238 80.2549 44.6519 87 52.8574 87C61.0629 87 67.4295 80.0131 71.0736 72.6612C72.617 69.5474 74.6671 66.6747 77.1709 64.1709C83.2256 58.1162 91.4374 54.7148 100 54.7148C108.563 54.7148 116.774 58.1162 122.829 64.1709C125.333 66.6747 127.383 69.5474 128.926 72.6612C132.571 80.0131 138.937 87 147.143 87Z" fill="#FAFAFA"/>
</svg>
